<svg width="203" height="222" viewBox="0 0 203 222" fill="none" xmlns="http://www.w3.org/2000/svg">
<path d="M43 204C43 197.833 43 191.667 43 185.5C43 179.903 45 174.833 45 169.389C45 158.333 45 147.278 45 136.222C45 125.167 48.7279 104.828 33 104C28.4141 103.759 24.7439 103.791 20.3333 102.556C17.5657 101.781 6.45571 101.341 5.22222 97.7778C4.43034 95.4901 4.5212 89.9046 5.05555 87.5C6.16041 82.5282 13.6491 79.2614 17.6111 76.5C28.6593 68.7997 40.359 61.7846 51 53.5555C56.9246 48.9738 62.5136 44.6664 68.7778 40.5555C71.7703 38.5917 74.7299 36.312 77 33.5555C78.9457 31.1929 81.3935 29.162 83.5555 27C85.295 25.2606 86.7583 21.1915 88.7778 20.2222C92.6957 18.3416 97.4415 13.5819 100 9.99999C112.159 -7.02255 129.057 22.8633 135 31.7778C138.082 36.4009 140.511 41.3505 143.5 46C147.563 52.3208 145.68 45.7482 147 40.7778C148.066 36.7657 149 32.7268 149 28.5555C149 26.8807 148.421 24.0533 149.111 22.5C151.304 17.5663 170.558 21.0784 174.778 24C179.098 26.9908 178.436 44.2047 175.222 48.2222C173.523 50.3467 173.584 54.8925 171.556 57.5C169.704 59.8809 168.59 62.5962 167.944 65.5C166.827 70.5283 170.775 71.7163 171 76C171.125 78.3809 171.251 83.1116 173.5 84.1111C175.155 84.8468 174.295 86.9872 175.444 87.7778C176.666 88.6179 178.382 89.7775 179.222 91C181.143 93.7943 185.124 96.5503 187.444 99C189.782 101.467 193.789 101.626 195.167 104.611C196.896 108.357 201.698 111.487 194.778 112C192.345 112.18 190.431 113.824 187.889 114.056C184.381 114.374 181.165 115 177.611 115C171.425 115 165.206 116 158.944 116C156.375 116 144.55 114.606 143.222 116.444C139.721 121.292 141.592 128.06 139.5 133.5C138.004 137.39 139 143.261 139 147.333C139 152.536 137.915 159.1 139.611 164C142.065 171.09 142.439 177.968 143.778 185.333C144.43 188.92 146 193.372 146 196.944C146 200.37 147 203.554 147 207C147 208.232 147.945 215.611 147.778 215.778C145.539 218.016 133.994 215 130.5 215C127.174 215 124.028 214 120.556 214C113.322 214 101.064 218.251 94.7778 213.222C92.7509 211.601 87.9964 211.521 85.5 209.944C82.2513 207.893 77.8862 208.566 75 206C72.8706 204.107 67.0775 205.408 66 202.444C64.3075 197.79 63 194.57 63 189.556C63 177.046 65 164.987 65 152.556C65 147.542 66.8634 142.5 67 137.444C67.0751 134.666 68.8778 125.53 71.5555 124C75.1023 121.973 79.8038 123.381 83.6667 122.222C89.2717 120.541 95.6238 120 101.444 120C106.37 120 107.688 121.821 109.778 126C111.275 128.995 114.685 134.011 115 137C115.69 143.551 119 149.388 119 156C119 162.172 116.239 170.156 110.889 173.5C106.267 176.389 97.7541 176 92.4444 176C88.1667 176 83.8889 176 79.6111 176C75.7436 176 72.0732 175.154 68.2222 175C64.9108 174.868 64.7778 170.333 64 168" stroke="#3F496A" stroke-width="9" stroke-linecap="round"/>
<path d="M87 116C87 123.753 86.8544 130.628 89.5556 137.778C91.2783 142.338 91.4072 146.584 93.5556 151C94.8644 153.69 96.2683 158.129 97 161.056C98.0377 165.206 99.0684 170.912 101.056 174.556C102.958 178.043 103.263 181.527 105 185" stroke="#3F496A" stroke-width="9" stroke-linecap="round"/>
<path d="M50 150C58.0882 150.899 66.5525 154 74.7778 154C82.6852 154 90.5926 154 98.5 154C103.842 154 109.347 154.401 114.444 152.944C118.369 151.823 121.988 149.337 126 148" stroke="#3F496A" stroke-width="9" stroke-linecap="round"/>
</svg>
